<?xml version="1.0" encoding="utf-8"?>
<!-- Generator: Adobe Illustrator 16.0.0, SVG Export Plug-In . SVG Version: 6.00 Build 0)  -->
<!DOCTYPE svg PUBLIC "-//W3C//DTD SVG 1.1//EN" "http://www.w3.org/Graphics/SVG/1.1/DTD/svg11.dtd">
<svg version="1.1" id="Layer_1" xmlns="http://www.w3.org/2000/svg" xmlns:xlink="http://www.w3.org/1999/xlink" x="0px" y="0px"
	 width="1200px" height="800px" viewBox="0 0 1200 800" enable-background="new 0 0 1200 800" xml:space="preserve">
<g>
	<circle fill="#366988" cx="601" cy="401" r="400"/>
	<g>
		<g id="notifications-on">
			<path fill="#FFFFFF" d="M485.132,204.068l-33.535-33.536c-57.489,43.118-95.816,110.189-100.607,186.843h47.908
				C403.689,292.699,434.83,237.604,485.132,204.068z M806.118,357.375h47.908c-4.79-76.654-40.721-143.725-98.21-186.843
				l-33.537,33.536C770.188,237.604,801.328,292.699,806.118,357.375z M758.21,369.351c0-74.257-50.303-134.142-119.771-150.91
				v-16.768c0-19.163-16.769-35.931-35.932-35.931s-35.931,16.768-35.931,35.931v16.768
				c-69.467,16.769-119.771,76.653-119.771,150.91v131.748l-47.908,47.91v23.952h407.22v-23.952l-47.908-47.91V369.351z
				 M602.508,644.823c2.396,0,7.186,0,9.584,0c16.766-2.396,28.741-14.372,33.533-28.743c2.397-4.793,4.792-11.977,4.792-19.164
				h-95.816C554.601,623.266,576.159,644.823,602.508,644.823z"/>
		</g>
	</g>
</g>
</svg>
